<svg width="285" height="24" viewBox="0 0 285 24" fill="none" xmlns="http://www.w3.org/2000/svg">
<path d="M0.5 23L6.2 1.1H9.83L15.5 23H12.77L11.33 17.18H4.7L3.26 23H0.5ZM5.24 14.9H10.76L9.08 8.15C8.76 6.87 8.51 5.8 8.33 4.94C8.15 4.08 8.04 3.52 8 3.26C7.96 3.52 7.85 4.08 7.67 4.94C7.49 5.8 7.24 6.86 6.92 8.12L5.24 14.9ZM26.1083 23.3C24.6683 23.3 23.4283 23.06 22.3883 22.58C21.3683 22.1 20.5783 21.41 20.0183 20.51C19.4583 19.61 19.1683 18.54 19.1483 17.3H21.8483C21.8483 18.4 22.2183 19.27 22.9583 19.91C23.7183 20.55 24.7683 20.87 26.1083 20.87C27.3683 20.87 28.3483 20.56 29.0483 19.94C29.7683 19.32 30.1283 18.46 30.1283 17.36C30.1283 16.48 29.8883 15.71 29.4083 15.05C28.9483 14.39 28.2783 13.93 27.3983 13.67L24.4283 12.74C22.9283 12.28 21.7683 11.51 20.9483 10.43C20.1483 9.35 19.7483 8.08 19.7483 6.62C19.7483 5.44 20.0083 4.42 20.5283 3.56C21.0683 2.68 21.8183 2 22.7783 1.52C23.7383 1.02 24.8683 0.769998 26.1683 0.769998C28.0883 0.769998 29.6283 1.31 30.7883 2.39C31.9483 3.45 32.5383 4.87 32.5583 6.65H29.8583C29.8583 5.57 29.5283 4.73 28.8683 4.13C28.2283 3.51 27.3183 3.2 26.1383 3.2C24.9783 3.2 24.0683 3.48 23.4083 4.04C22.7683 4.6 22.4483 5.38 22.4483 6.38C22.4483 7.28 22.6883 8.06 23.1683 8.72C23.6483 9.38 24.3383 9.85 25.2383 10.13L28.2383 11.09C29.6983 11.55 30.8283 12.33 31.6283 13.43C32.4283 14.53 32.8283 15.82 32.8283 17.3C32.8283 18.5 32.5483 19.55 31.9883 20.45C31.4283 21.35 30.6383 22.05 29.6183 22.55C28.6183 23.05 27.4483 23.3 26.1083 23.3ZM44.0966 23.3C42.7766 23.3 41.6266 23.05 40.6466 22.55C39.6866 22.05 38.9366 21.33 38.3966 20.39C37.8766 19.43 37.6166 18.3 37.6166 17V7.1C37.6166 5.78 37.8766 4.65 38.3966 3.71C38.9366 2.77 39.6866 2.05 40.6466 1.55C41.6266 1.05 42.7766 0.8 44.0966 0.8C45.4166 0.8 46.5566 1.06 47.5166 1.58C48.4766 2.08 49.2166 2.8 49.7366 3.74C50.2566 4.68 50.5166 5.8 50.5166 7.1H47.8166C47.8166 5.86 47.4866 4.91 46.8266 4.25C46.1866 3.57 45.2766 3.23 44.0966 3.23C42.9166 3.23 41.9866 3.56 41.3066 4.22C40.6466 4.88 40.3166 5.83 40.3166 7.07V17C40.3166 18.24 40.6466 19.2 41.3066 19.88C41.9866 20.54 42.9166 20.87 44.0966 20.87C45.2766 20.87 46.1866 20.54 46.8266 19.88C47.4866 19.2 47.8166 18.24 47.8166 17H50.5166C50.5166 18.28 50.2566 19.4 49.7366 20.36C49.2166 21.3 48.4766 22.03 47.5166 22.55C46.5566 23.05 45.4166 23.3 44.0966 23.3ZM56.1148 23V20.54H60.5848V3.56H56.1148V1.1H67.8148V3.56H63.3448V20.54H67.8148V23H56.1148ZM74.1031 23V20.54H78.5731V3.56H74.1031V1.1H85.8031V3.56H81.3331V20.54H85.8031V23H74.1031ZM97.9414 10.7C97.2014 10.7 96.6014 10.5 96.1414 10.1C95.6814 9.68 95.4514 9.13 95.4514 8.45C95.4514 7.77 95.6814 7.23 96.1414 6.83C96.6014 6.41 97.2014 6.2 97.9414 6.2C98.7014 6.2 99.3014 6.41 99.7414 6.83C100.201 7.23 100.431 7.77 100.431 8.45C100.431 9.13 100.201 9.68 99.7414 10.1C99.3014 10.5 98.7014 10.7 97.9414 10.7ZM97.9414 23.3C97.2014 23.3 96.6014 23.1 96.1414 22.7C95.6814 22.28 95.4514 21.73 95.4514 21.05C95.4514 20.37 95.6814 19.83 96.1414 19.43C96.6014 19.01 97.2014 18.8 97.9414 18.8C98.7014 18.8 99.3014 19.01 99.7414 19.43C100.201 19.83 100.431 20.37 100.431 21.05C100.431 21.73 100.201 22.28 99.7414 22.7C99.3014 23.1 98.7014 23.3 97.9414 23.3Z" fill="white"/>
<path d="M118.18 23C117.22 23 116.38 22.81 115.66 22.43C114.94 22.05 114.38 21.51 113.98 20.81C113.58 20.11 113.38 19.29 113.38 18.35V3.56H107.83V1.1H116.08V18.35C116.08 19.03 116.27 19.57 116.65 19.97C117.03 20.35 117.54 20.54 118.18 20.54H123.43V23H118.18ZM136.168 23C135.208 23 134.368 22.81 133.648 22.43C132.928 22.05 132.368 21.51 131.968 20.81C131.568 20.11 131.368 19.29 131.368 18.35V3.56H125.818V1.1H134.068V18.35C134.068 19.03 134.258 19.57 134.638 19.97C135.018 20.35 135.528 20.54 136.168 20.54H141.418V23H136.168ZM151.876 23.3C149.976 23.3 148.456 22.74 147.316 21.62C146.176 20.48 145.606 18.94 145.606 17V6.5H148.306V17C148.306 18.24 148.626 19.21 149.266 19.91C149.906 20.59 150.776 20.93 151.876 20.93C152.996 20.93 153.876 20.59 154.516 19.91C155.176 19.21 155.506 18.24 155.506 17V6.5H158.206V17C158.206 18.94 157.626 20.48 156.466 21.62C155.306 22.74 153.776 23.3 151.876 23.3ZM169.385 23.24C168.265 23.24 167.285 23.07 166.445 22.73C165.625 22.37 164.965 21.87 164.465 21.23C163.985 20.59 163.695 19.83 163.595 18.95H166.295C166.415 19.53 166.735 19.99 167.255 20.33C167.795 20.67 168.505 20.84 169.385 20.84H170.645C171.705 20.84 172.495 20.63 173.015 20.21C173.535 19.77 173.795 19.19 173.795 18.47C173.795 17.77 173.555 17.22 173.075 16.82C172.615 16.4 171.925 16.12 171.005 15.98L168.785 15.62C167.165 15.34 165.955 14.84 165.155 14.12C164.375 13.38 163.985 12.31 163.985 10.91C163.985 9.43 164.455 8.29 165.395 7.49C166.335 6.67 167.745 6.26 169.625 6.26H170.765C172.345 6.26 173.615 6.63 174.575 7.37C175.535 8.11 176.115 9.11 176.315 10.37H173.615C173.495 9.85 173.195 9.44 172.715 9.14C172.235 8.82 171.585 8.66 170.765 8.66H169.625C168.605 8.66 167.855 8.85 167.375 9.23C166.915 9.61 166.685 10.18 166.685 10.94C166.685 11.62 166.885 12.12 167.285 12.44C167.685 12.76 168.315 12.99 169.175 13.13L171.395 13.49C173.175 13.77 174.465 14.29 175.265 15.05C176.085 15.81 176.495 16.91 176.495 18.35C176.495 19.87 176.005 21.07 175.025 21.95C174.065 22.81 172.605 23.24 170.645 23.24H169.385ZM189.683 23C188.263 23 187.153 22.62 186.353 21.86C185.573 21.1 185.183 20.03 185.183 18.65V8.96H180.533V6.5H185.183V1.85H187.883V6.5H194.483V8.96H187.883V18.65C187.883 19.91 188.483 20.54 189.683 20.54H194.183V23H189.683ZM200.201 23V6.5H202.841V9.65H203.471L202.601 11.6C202.601 9.82 202.981 8.48 203.741 7.58C204.521 6.66 205.671 6.2 207.191 6.2C208.931 6.2 210.311 6.75 211.331 7.85C212.371 8.93 212.891 10.4 212.891 12.26V13.25H210.191V12.5C210.191 11.2 209.871 10.21 209.231 9.53C208.611 8.83 207.721 8.48 206.561 8.48C205.421 8.48 204.521 8.83 203.861 9.53C203.221 10.23 202.901 11.22 202.901 12.5V23H200.201ZM222.419 23.3C220.679 23.3 219.309 22.86 218.309 21.98C217.309 21.08 216.809 19.87 216.809 18.35C216.809 16.81 217.309 15.6 218.309 14.72C219.309 13.84 220.659 13.4 222.359 13.4H227.459V11.75C227.459 10.73 227.149 9.95 226.529 9.41C225.929 8.85 225.069 8.57 223.949 8.57C222.969 8.57 222.149 8.78 221.489 9.2C220.829 9.6 220.449 10.15 220.349 10.85H217.649C217.829 9.43 218.499 8.3 219.659 7.46C220.819 6.62 222.269 6.2 224.009 6.2C225.909 6.2 227.409 6.69 228.509 7.67C229.609 8.65 230.159 9.98 230.159 11.66V23H227.519V19.85H227.069L227.519 19.4C227.519 20.6 227.049 21.55 226.109 22.25C225.189 22.95 223.959 23.3 222.419 23.3ZM223.079 21.17C224.359 21.17 225.409 20.85 226.229 20.21C227.049 19.57 227.459 18.75 227.459 17.75V15.41H222.419C221.519 15.41 220.809 15.66 220.289 16.16C219.769 16.66 219.509 17.34 219.509 18.2C219.509 19.12 219.819 19.85 220.439 20.39C221.079 20.91 221.959 21.17 223.079 21.17ZM243.648 23C242.228 23 241.118 22.62 240.318 21.86C239.538 21.1 239.148 20.03 239.148 18.65V8.96H234.498V6.5H239.148V1.85H241.848V6.5H248.448V8.96H241.848V18.65C241.848 19.91 242.448 20.54 243.648 20.54H248.148V23H243.648ZM259.836 23.24C258.516 23.24 257.376 22.99 256.416 22.49C255.456 21.99 254.706 21.27 254.166 20.33C253.646 19.37 253.386 18.24 253.386 16.94V12.56C253.386 11.24 253.646 10.11 254.166 9.17C254.706 8.23 255.456 7.51 256.416 7.01C257.376 6.51 258.516 6.26 259.836 6.26C261.156 6.26 262.296 6.51 263.256 7.01C264.216 7.51 264.956 8.23 265.476 9.17C266.016 10.11 266.286 11.23 266.286 12.53V16.94C266.286 18.24 266.016 19.37 265.476 20.33C264.956 21.27 264.216 21.99 263.256 22.49C262.296 22.99 261.156 23.24 259.836 23.24ZM259.836 20.84C261.016 20.84 261.936 20.51 262.596 19.85C263.256 19.19 263.586 18.22 263.586 16.94V12.56C263.586 11.28 263.256 10.31 262.596 9.65C261.936 8.99 261.016 8.66 259.836 8.66C258.676 8.66 257.756 8.99 257.076 9.65C256.416 10.31 256.086 11.28 256.086 12.56V16.94C256.086 18.22 256.416 19.19 257.076 19.85C257.756 20.51 258.676 20.84 259.836 20.84ZM272.154 23V6.5H274.794V9.65H275.424L274.554 11.6C274.554 9.82 274.934 8.48 275.694 7.58C276.474 6.66 277.624 6.2 279.144 6.2C280.884 6.2 282.264 6.75 283.284 7.85C284.324 8.93 284.844 10.4 284.844 12.26V13.25H282.144V12.5C282.144 11.2 281.824 10.21 281.184 9.53C280.564 8.83 279.674 8.48 278.514 8.48C277.374 8.48 276.474 8.83 275.814 9.53C275.174 10.23 274.854 11.22 274.854 12.5V23H272.154Z" fill="#640D5F"/>
</svg>
